<?xml version="1.0" encoding="utf-8"?>
<!-- Generator: Adobe Illustrator 16.0.0, SVG Export Plug-In . SVG Version: 6.00 Build 0)  -->
<!DOCTYPE svg PUBLIC "-//W3C//DTD SVG 1.1//EN" "http://www.w3.org/Graphics/SVG/1.1/DTD/svg11.dtd">
<svg version="1.1" id="Layer_1" xmlns="http://www.w3.org/2000/svg" xmlns:xlink="http://www.w3.org/1999/xlink" x="0px" y="0px"
	 width="32px" height="32px" viewBox="0 0 32 32" enable-background="new 0 0 32 32" xml:space="preserve">
<path fill="none" stroke="#CCCCCC" stroke-width="2" stroke-miterlimit="10" d="M15.25,4.562c-0.202,0.021-0.402,0.046-0.601,0.076
	c-0.198,0.031-0.396,0.066-0.591,0.105s-0.389,0.084-0.581,0.134s-0.382,0.103-0.57,0.162S12.534,5.16,12.35,5.228
	c-0.184,0.067-0.366,0.139-0.545,0.215c-0.179,0.076-0.357,0.156-0.532,0.24c-0.175,0.084-0.348,0.172-0.518,0.265
	s-0.337,0.188-0.502,0.289c-0.165,0.1-0.327,0.204-0.487,0.312s-0.316,0.22-0.47,0.334C9.143,6.998,8.991,7.116,8.843,7.238
	S8.55,7.486,8.408,7.615C8.266,7.745,8.127,7.877,7.991,8.013S7.723,8.287,7.594,8.429C7.465,8.571,7.339,8.717,7.217,8.865
	S6.976,9.164,6.861,9.318c-0.115,0.154-0.227,0.311-0.334,0.47s-0.212,0.322-0.312,0.487c-0.1,0.165-0.196,0.333-0.289,0.502
	s-0.181,0.343-0.265,0.518c-0.084,0.175-0.165,0.353-0.24,0.532c-0.076,0.179-0.147,0.361-0.215,0.545
	c-0.067,0.184-0.13,0.37-0.188,0.558s-0.112,0.378-0.162,0.57s-0.094,0.385-0.134,0.581s-0.075,0.393-0.105,0.591"/>
<polyline fill="#CCCCCC" stroke="#CCCCCC" stroke-width="2" stroke-miterlimit="10" points="12.35,9.327 15.436,4.586 10.695,1.5 
	"/>
<path fill="none" stroke="#CCCCCC" stroke-width="2" stroke-miterlimit="10" d="M28.188,15.209c-0.02-0.201-0.045-0.402-0.076-0.601
	c-0.03-0.198-0.065-0.396-0.105-0.591c-0.039-0.195-0.084-0.389-0.133-0.58c-0.05-0.192-0.104-0.383-0.162-0.57
	s-0.121-0.374-0.188-0.559c-0.067-0.184-0.139-0.365-0.215-0.545c-0.075-0.179-0.155-0.356-0.24-0.531
	c-0.084-0.175-0.173-0.348-0.265-0.518s-0.188-0.337-0.289-0.503c-0.1-0.164-0.203-0.326-0.312-0.486s-0.22-0.316-0.335-0.471
	c-0.115-0.153-0.233-0.305-0.355-0.453c-0.122-0.147-0.248-0.293-0.377-0.436c-0.129-0.142-0.262-0.28-0.397-0.416
	s-0.274-0.268-0.417-0.397c-0.142-0.129-0.287-0.255-0.436-0.377c-0.147-0.122-0.299-0.241-0.453-0.356
	c-0.153-0.115-0.311-0.227-0.47-0.334s-0.322-0.212-0.487-0.312c-0.164-0.1-0.332-0.196-0.502-0.289s-0.343-0.181-0.518-0.265
	c-0.175-0.084-0.353-0.165-0.531-0.24c-0.18-0.076-0.361-0.147-0.545-0.215c-0.185-0.067-0.371-0.13-0.559-0.188
	s-0.378-0.112-0.57-0.162c-0.191-0.049-0.385-0.094-0.58-0.134s-0.393-0.075-0.591-0.105"/>
<polyline fill="#CCCCCC" stroke="#CCCCCC" stroke-width="2" stroke-miterlimit="10" points="23.423,12.309 28.164,15.395 
	31.25,10.655 "/>
<path fill="none" stroke="#CCCCCC" stroke-width="2" stroke-miterlimit="10" d="M17.756,27.938c0.201-0.02,0.402-0.045,0.6-0.076
	c0.199-0.03,0.396-0.065,0.592-0.105c0.195-0.039,0.389-0.084,0.58-0.133c0.191-0.05,0.383-0.104,0.57-0.162
	s0.373-0.121,0.559-0.188c0.184-0.067,0.365-0.139,0.545-0.215c0.178-0.075,0.355-0.155,0.531-0.24
	c0.174-0.084,0.348-0.173,0.518-0.265s0.336-0.188,0.502-0.289c0.164-0.1,0.326-0.203,0.486-0.312s0.316-0.22,0.471-0.335
	s0.305-0.233,0.453-0.355s0.293-0.248,0.436-0.377s0.281-0.262,0.416-0.397c0.137-0.136,0.268-0.274,0.398-0.417
	c0.129-0.142,0.254-0.287,0.377-0.436c0.121-0.147,0.24-0.299,0.355-0.453c0.115-0.153,0.227-0.311,0.334-0.47
	c0.108-0.159,0.213-0.322,0.313-0.487c0.1-0.164,0.196-0.332,0.289-0.502c0.092-0.17,0.18-0.343,0.264-0.518
	c0.085-0.175,0.165-0.353,0.24-0.531c0.076-0.18,0.148-0.361,0.215-0.545c0.068-0.185,0.131-0.371,0.189-0.559
	S28.1,19.192,28.149,19c0.05-0.191,0.095-0.385,0.134-0.58s0.074-0.393,0.105-0.591"/>
<polyline fill="#CCCCCC" stroke="#CCCCCC" stroke-width="2" stroke-miterlimit="10" points="20.656,23.173 17.57,27.914 22.311,31 
	"/>
<path fill="none" stroke="#CCCCCC" stroke-width="2" stroke-miterlimit="10" d="M4.77,17.686c0.02,0.201,0.045,0.402,0.076,0.6
	c0.03,0.199,0.065,0.396,0.105,0.592c0.039,0.195,0.084,0.389,0.133,0.58c0.05,0.191,0.104,0.383,0.162,0.57
	s0.121,0.373,0.188,0.559c0.067,0.184,0.139,0.365,0.215,0.545c0.075,0.178,0.155,0.355,0.24,0.531
	c0.084,0.174,0.173,0.348,0.265,0.518s0.188,0.336,0.289,0.502c0.1,0.164,0.203,0.326,0.312,0.486s0.22,0.316,0.335,0.471
	s0.233,0.305,0.355,0.453s0.248,0.293,0.377,0.436s0.262,0.281,0.397,0.416c0.136,0.137,0.274,0.268,0.417,0.398
	c0.142,0.129,0.287,0.254,0.436,0.377c0.147,0.121,0.299,0.24,0.453,0.355c0.153,0.115,0.311,0.227,0.47,0.334
	c0.159,0.108,0.322,0.213,0.487,0.313c0.164,0.1,0.332,0.196,0.502,0.289c0.17,0.092,0.343,0.18,0.518,0.264
	c0.175,0.085,0.353,0.165,0.531,0.24c0.18,0.076,0.361,0.148,0.545,0.215c0.185,0.068,0.371,0.131,0.559,0.189
	s0.378,0.111,0.57,0.161c0.191,0.05,0.385,0.095,0.58,0.134s0.393,0.074,0.591,0.105"/>
<polyline fill="#CCCCCC" stroke="#CCCCCC" stroke-width="2" stroke-miterlimit="10" points="9.534,20.586 4.793,17.5 1.707,22.24 
	"/>
</svg>
